<svg width="20" height="20" viewBox="0 0 20 20" fill="none" xmlns="http://www.w3.org/2000/svg">
<path fill-rule="evenodd" clip-rule="evenodd" d="M-4.37114e-07 10C-7.71506e-08 1.765 1.765 -7.97077e-07 10 -4.37114e-07C18.235 -7.71506e-08 20 1.765 20 10C20 18.235 18.235 20 10 20C1.765 20 -7.97077e-07 18.235 -4.37114e-07 10ZM13.9226 11.0774L10.5893 7.74408C10.2638 7.41864 9.73618 7.41864 9.41074 7.74408L6.07741 11.0774C5.75197 11.4028 5.75197 11.9305 6.07741 12.2559C6.40285 12.5814 6.93049 12.5814 7.25592 12.2559L10 9.51184L12.7441 12.2559C13.0695 12.5814 13.5972 12.5814 13.9226 12.2559C14.248 11.9305 14.248 11.4028 13.9226 11.0774Z" fill="url(#paint0_linear_489_2)"/>
<defs>
<linearGradient id="paint0_linear_489_2" x1="6.72297" y1="-1.64456" x2="4.60573" y2="18.8605" gradientUnits="userSpaceOnUse">
<stop offset="0.0001" stop-color="#2663FF"/>
<stop offset="1" stop-color="#DD8D53"/>
</linearGradient>
</defs>
</svg>
