<svg width="20" height="20" viewBox="0 0 20 20" fill="none" xmlns="http://www.w3.org/2000/svg">
<path fill-rule="evenodd" clip-rule="evenodd" d="M20 10C20 18.235 18.235 20 10 20C1.765 20 -7.71506e-08 18.235 -4.37114e-07 10C-7.97077e-07 1.765 1.765 -7.71506e-08 10 -4.37114e-07C18.235 -7.97077e-07 20 1.765 20 10ZM6.07741 8.92259L9.41074 12.2559C9.73618 12.5814 10.2638 12.5814 10.5893 12.2559L13.9226 8.92259C14.248 8.59715 14.248 8.06951 13.9226 7.74408C13.5972 7.41864 13.0695 7.41864 12.7441 7.74408L10 10.4882L7.25592 7.74408C6.93048 7.41864 6.40285 7.41864 6.07741 7.74408C5.75197 8.06951 5.75197 8.59715 6.07741 8.92259Z" fill="url(#paint0_linear_489_799)"/>
<defs>
<linearGradient id="paint0_linear_489_799" x1="13.277" y1="21.6446" x2="15.3943" y2="1.1395" gradientUnits="userSpaceOnUse">
<stop stop-color="#5DA8FF"/>
<stop offset="0.0001" stop-color="#2663FF"/>
<stop offset="1" stop-color="#20DE9A"/>
</linearGradient>
</defs>
</svg>
